<?xml version="1.0" standalone="no"?>
<svg xmlns="http://www.w3.org/2000/svg" width="2000" height="2000" viewBox="0 0 2000 2000"><defs><clipPath id="clip-path-dot-color"><circle cx="136" cy="568" r="27" transform="rotate(0,136,568)"/><path d="M 109 757v 54h 27a 27 27, 0, 0, 0, 0 -54" transform="rotate(-90,136,784)"/><rect x="109" y="811" width="54" height="54" transform="rotate(0,136,838)"/><rect x="109" y="865" width="54" height="54" transform="rotate(0,136,892)"/><rect x="109" y="919" width="54" height="54" transform="rotate(0,136,946)"/><path d="M 109 973v 54h 54a 54 54, 0, 0, 0, -54 -54" transform="rotate(180,136,1000)"/><path d="M 109 1081v 54h 27a 27 27, 0, 0, 0, 0 -54" transform="rotate(-90,136,1108)"/><path d="M 109 1135v 54h 27a 27 27, 0, 0, 0, 0 -54" transform="rotate(90,136,1162)"/><path d="M 109 1351v 54h 54a 54 54, 0, 0, 0, -54 -54" transform="rotate(-90,136,1378)"/><path d="M 109 1405v 54h 27a 27 27, 0, 0, 0, 0 -54" transform="rotate(90,136,1432)"/><path d="M 163 595v 54h 27a 27 27, 0, 0, 0, 0 -54" transform="rotate(180,190,622)"/><path d="M 163 703v 54h 27a 27 27, 0, 0, 0, 0 -54" transform="rotate(180,190,730)"/><path d="M 163 811v 54h 27a 27 27, 0, 0, 0, 0 -54" transform="rotate(0,190,838)"/><path d="M 163 919v 54h 54a 54 54, 0, 0, 0, -54 -54" transform="rotate(0,190,946)"/><rect x="163" y="973" width="54" height="54" transform="rotate(0,190,1000)"/><path d="M 163 1027v 54h 54a 54 54, 0, 0, 0, -54 -54" transform="rotate(180,190,1054)"/><path d="M 163 1243v 54h 27a 27 27, 0, 0, 0, 0 -54" transform="rotate(-90,190,1270)"/><rect x="163" y="1297" width="54" height="54" transform="rotate(0,190,1324)"/><path d="M 163 1351v 54h 54a 54 54, 0, 0, 0, -54 -54" transform="rotate(90,190,1378)"/><path d="M 217 541v 54h 54a 54 54, 0, 0, 0, -54 -54" transform="rotate(-90,244,568)"/><rect x="217" y="595" width="54" height="54" transform="rotate(0,244,622)"/><rect x="217" y="649" width="54" height="54" transform="rotate(0,244,676)"/><rect x="217" y="703" width="54" height="54" transform="rotate(0,244,730)"/><path d="M 217 757v 54h 54a 54 54, 0, 0, 0, -54 -54" transform="rotate(180,244,784)"/><rect x="217" y="1027" width="54" height="54" transform="rotate(0,244,1054)"/><path d="M 217 1135v 54h 27a 27 27, 0, 0, 0, 0 -54" transform="rotate(-90,244,1162)"/><path d="M 217 1189v 54h 27a 27 27, 0, 0, 0, 0 -54" transform="rotate(90,244,1216)"/><path d="M 271 541v 54h 54a 54 54, 0, 0, 0, -54 -54" transform="rotate(0,298,568)"/><rect x="271" y="595" width="54" height="54" transform="rotate(0,298,622)"/><rect x="271" y="649" width="54" height="54" transform="rotate(0,298,676)"/><rect x="271" y="703" width="54" height="54" transform="rotate(0,298,730)"/><rect x="271" y="757" width="54" height="54" transform="rotate(0,298,784)"/><path d="M 271 811v 54h 27a 27 27, 0, 0, 0, 0 -54" transform="rotate(90,298,838)"/><path d="M 271 919v 54h 27a 27 27, 0, 0, 0, 0 -54" transform="rotate(-90,298,946)"/><rect x="271" y="973" width="54" height="54" transform="rotate(0,298,1000)"/><path d="M 271 1027v 54h 54a 54 54, 0, 0, 0, -54 -54" transform="rotate(90,298,1054)"/><circle cx="298" cy="1270" r="27" transform="rotate(0,298,1270)"/><circle cx="298" cy="1378" r="27" transform="rotate(0,298,1378)"/><path d="M 325 649v 54h 27a 27 27, 0, 0, 0, 0 -54" transform="rotate(0,352,676)"/><path d="M 325 757v 54h 27a 27 27, 0, 0, 0, 0 -54" transform="rotate(0,352,784)"/><rect x="325" y="973" width="54" height="54" transform="rotate(0,352,1000)"/><circle cx="352" cy="1162" r="27" transform="rotate(0,352,1162)"/><circle cx="352" cy="1324" r="27" transform="rotate(0,352,1324)"/><path d="M 379 541v 54h 54a 54 54, 0, 0, 0, -54 -54" transform="rotate(-90,406,568)"/><path d="M 379 595v 54h 27a 27 27, 0, 0, 0, 0 -54" transform="rotate(90,406,622)"/><path d="M 379 865v 54h 54a 54 54, 0, 0, 0, -54 -54" transform="rotate(-90,406,892)"/><rect x="379" y="919" width="54" height="54" transform="rotate(0,406,946)"/><rect x="379" y="973" width="54" height="54" transform="rotate(0,406,1000)"/><path d="M 379 1027v 54h 27a 27 27, 0, 0, 0, 0 -54" transform="rotate(90,406,1054)"/><path d="M 379 1189v 54h 54a 54 54, 0, 0, 0, -54 -54" transform="rotate(-90,406,1216)"/><path d="M 379 1243v 54h 27a 27 27, 0, 0, 0, 0 -54" transform="rotate(90,406,1270)"/><circle cx="406" cy="1378" r="27" transform="rotate(0,406,1378)"/><rect x="433" y="541" width="54" height="54" transform="rotate(0,460,568)"/><circle cx="460" cy="676" r="27" transform="rotate(0,460,676)"/><circle cx="460" cy="784" r="27" transform="rotate(0,460,784)"/><rect x="433" y="865" width="54" height="54" transform="rotate(0,460,892)"/><rect x="433" y="973" width="54" height="54" transform="rotate(0,460,1000)"/><path d="M 433 1081v 54h 27a 27 27, 0, 0, 0, 0 -54" transform="rotate(180,460,1108)"/><rect x="433" y="1189" width="54" height="54" transform="rotate(0,460,1216)"/><circle cx="460" cy="1324" r="27" transform="rotate(0,460,1324)"/><path d="M 433 1405v 54h 27a 27 27, 0, 0, 0, 0 -54" transform="rotate(180,460,1432)"/><rect x="487" y="541" width="54" height="54" transform="rotate(0,514,568)"/><path d="M 487 595v 54h 27a 27 27, 0, 0, 0, 0 -54" transform="rotate(90,514,622)"/><path d="M 487 811v 54h 27a 27 27, 0, 0, 0, 0 -54" transform="rotate(-90,514,838)"/><rect x="487" y="865" width="54" height="54" transform="rotate(0,514,892)"/><rect x="487" y="919" width="54" height="54" transform="rotate(0,514,946)"/><rect x="487" y="973" width="54" height="54" transform="rotate(0,514,1000)"/><rect x="487" y="1027" width="54" height="54" transform="rotate(0,514,1054)"/><rect x="487" y="1081" width="54" height="54" transform="rotate(0,514,1108)"/><rect x="487" y="1135" width="54" height="54" transform="rotate(0,514,1162)"/><rect x="487" y="1189" width="54" height="54" transform="rotate(0,514,1216)"/><path d="M 487 1243v 54h 54a 54 54, 0, 0, 0, -54 -54" transform="rotate(180,514,1270)"/><path d="M 487 1405v 54h 27a 27 27, 0, 0, 0, 0 -54" transform="rotate(0,514,1432)"/><circle cx="568" cy="190" r="27" transform="rotate(0,568,190)"/><path d="M 541 271v 54h 27a 27 27, 0, 0, 0, 0 -54" transform="rotate(180,568,298)"/><path d="M 541 379v 54h 54a 54 54, 0, 0, 0, -54 -54" transform="rotate(-90,568,406)"/><rect x="541" y="433" width="54" height="54" transform="rotate(0,568,460)"/><rect x="541" y="487" width="54" height="54" transform="rotate(0,568,514)"/><rect x="541" y="541" width="54" height="54" transform="rotate(0,568,568)"/><rect x="541" y="973" width="54" height="54" transform="rotate(0,568,1000)"/><path d="M 541 1135v 54h 27a 27 27, 0, 0, 0, 0 -54" transform="rotate(0,568,1162)"/><path d="M 541 1243v 54h 54a 54 54, 0, 0, 0, -54 -54" transform="rotate(0,568,1270)"/><path d="M 541 1297v 54h 54a 54 54, 0, 0, 0, -54 -54" transform="rotate(180,568,1324)"/><path d="M 541 1459v 54h 54a 54 54, 0, 0, 0, -54 -54" transform="rotate(-90,568,1486)"/><rect x="541" y="1513" width="54" height="54" transform="rotate(0,568,1540)"/><path d="M 541 1567v 54h 54a 54 54, 0, 0, 0, -54 -54" transform="rotate(180,568,1594)"/><path d="M 541 1675v 54h 27a 27 27, 0, 0, 0, 0 -54" transform="rotate(-90,568,1702)"/><path d="M 541 1729v 54h 27a 27 27, 0, 0, 0, 0 -54" transform="rotate(90,568,1756)"/><circle cx="568" cy="1864" r="27" transform="rotate(0,568,1864)"/><circle cx="622" cy="136" r="27" transform="rotate(0,622,136)"/><path d="M 595 217v 54h 27a 27 27, 0, 0, 0, 0 -54" transform="rotate(-90,622,244)"/><path d="M 595 271v 54h 54a 54 54, 0, 0, 0, -54 -54" transform="rotate(90,622,298)"/><path d="M 595 379v 54h 27a 27 27, 0, 0, 0, 0 -54" transform="rotate(0,622,406)"/><rect x="595" y="541" width="54" height="54" transform="rotate(0,622,568)"/><rect x="595" y="595" width="54" height="54" transform="rotate(0,622,622)"/><rect x="595" y="649" width="54" height="54" transform="rotate(0,622,676)"/><rect x="595" y="703" width="54" height="54" transform="rotate(0,622,730)"/><rect x="595" y="757" width="54" height="54" transform="rotate(0,622,784)"/><rect x="595" y="811" width="54" height="54" transform="rotate(0,622,838)"/><path d="M 595 865v 54h 27a 27 27, 0, 0, 0, 0 -54" transform="rotate(90,622,892)"/><path d="M 595 973v 54h 27a 27 27, 0, 0, 0, 0 -54" transform="rotate(0,622,1000)"/><rect x="595" y="1297" width="54" height="54" transform="rotate(0,622,1324)"/><path d="M 595 1459v 54h 54a 54 54, 0, 0, 0, -54 -54" transform="rotate(0,622,1486)"/><rect x="595" y="1513" width="54" height="54" transform="rotate(0,622,1540)"/><rect x="595" y="1567" width="54" height="54" transform="rotate(0,622,1594)"/><path d="M 649 163v 54h 27a 27 27, 0, 0, 0, 0 -54" transform="rotate(180,676,190)"/><path d="M 649 433v 54h 27a 27 27, 0, 0, 0, 0 -54" transform="rotate(-90,676,460)"/><rect x="649" y="487" width="54" height="54" transform="rotate(0,676,514)"/><rect x="649" y="541" width="54" height="54" transform="rotate(0,676,568)"/><path d="M 649 811v 54h 27a 27 27, 0, 0, 0, 0 -54" transform="rotate(0,676,838)"/><path d="M 649 1027v 54h 27a 27 27, 0, 0, 0, 0 -54" transform="rotate(180,676,1054)"/><path d="M 649 1135v 54h 27a 27 27, 0, 0, 0, 0 -54" transform="rotate(180,676,1162)"/><path d="M 649 1243v 54h 27a 27 27, 0, 0, 0, 0 -54" transform="rotate(-90,676,1270)"/><path d="M 649 1297v 54h 54a 54 54, 0, 0, 0, -54 -54" transform="rotate(90,676,1324)"/><circle cx="676" cy="1432" r="27" transform="rotate(0,676,1432)"/><path d="M 649 1567v 54h 54a 54 54, 0, 0, 0, -54 -54" transform="rotate(0,676,1594)"/><path d="M 649 1621v 54h 54a 54 54, 0, 0, 0, -54 -54" transform="rotate(180,676,1648)"/><circle cx="676" cy="1756" r="27" transform="rotate(0,676,1756)"/><circle cx="676" cy="1864" r="27" transform="rotate(0,676,1864)"/><path d="M 703 163v 54h 27a 27 27, 0, 0, 0, 0 -54" transform="rotate(0,730,190)"/><path d="M 703 271v 54h 54a 54 54, 0, 0, 0, -54 -54" transform="rotate(-90,730,298)"/><path d="M 703 325v 54h 54a 54 54, 0, 0, 0, -54 -54" transform="rotate(180,730,352)"/><path d="M 703 541v 54h 54a 54 54, 0, 0, 0, -54 -54" transform="rotate(0,730,568)"/><rect x="703" y="595" width="54" height="54" transform="rotate(0,730,622)"/><path d="M 703 649v 54h 54a 54 54, 0, 0, 0, -54 -54" transform="rotate(180,730,676)"/><path d="M 703 865v 54h 54a 54 54, 0, 0, 0, -54 -54" transform="rotate(-90,730,892)"/><path d="M 703 919v 54h 54a 54 54, 0, 0, 0, -54 -54" transform="rotate(180,730,946)"/><path d="M 703 1027v 54h 27a 27 27, 0, 0, 0, 0 -54" transform="rotate(0,730,1054)"/><rect x="703" y="1135" width="54" height="54" transform="rotate(0,730,1162)"/><path d="M 703 1189v 54h 27a 27 27, 0, 0, 0, 0 -54" transform="rotate(90,730,1216)"/><path d="M 703 1513v 54h 27a 27 27, 0, 0, 0, 0 -54" transform="rotate(180,730,1540)"/><path d="M 703 1621v 54h 54a 54 54, 0, 0, 0, -54 -54" transform="rotate(0,730,1648)"/><path d="M 703 1675v 54h 54a 54 54, 0, 0, 0, -54 -54" transform="rotate(180,730,1702)"/><rect x="757" y="271" width="54" height="54" transform="rotate(0,784,298)"/><rect x="757" y="325" width="54" height="54" transform="rotate(0,784,352)"/><rect x="757" y="379" width="54" height="54" transform="rotate(0,784,406)"/><rect x="757" y="433" width="54" height="54" transform="rotate(0,784,460)"/><path d="M 757 487v 54h 54a 54 54, 0, 0, 0, -54 -54" transform="rotate(180,784,514)"/><path d="M 757 649v 54h 27a 27 27, 0, 0, 0, 0 -54" transform="rotate(0,784,676)"/><path d="M 757 757v 54h 54a 54 54, 0, 0, 0, -54 -54" transform="rotate(-90,784,784)"/><rect x="757" y="811" width="54" height="54" transform="rotate(0,784,838)"/><rect x="757" y="865" width="54" height="54" transform="rotate(0,784,892)"/><rect x="757" y="919" width="54" height="54" transform="rotate(0,784,946)"/><path d="M 757 973v 54h 27a 27 27, 0, 0, 0, 0 -54" transform="rotate(90,784,1000)"/><path d="M 757 1135v 54h 27a 27 27, 0, 0, 0, 0 -54" transform="rotate(0,784,1162)"/><path d="M 757 1405v 54h 27a 27 27, 0, 0, 0, 0 -54" transform="rotate(-90,784,1432)"/><rect x="757" y="1459" width="54" height="54" transform="rotate(0,784,1486)"/><path d="M 757 1513v 54h 54a 54 54, 0, 0, 0, -54 -54" transform="rotate(90,784,1540)"/><path d="M 757 1675v 54h 27a 27 27, 0, 0, 0, 0 -54" transform="rotate(0,784,1702)"/><path d="M 757 1783v 54h 27a 27 27, 0, 0, 0, 0 -54" transform="rotate(180,784,1810)"/><circle cx="838" cy="136" r="27" transform="rotate(0,838,136)"/><path d="M 811 217v 54h 27a 27 27, 0, 0, 0, 0 -54" transform="rotate(-90,838,244)"/><rect x="811" y="271" width="54" height="54" transform="rotate(0,838,298)"/><path d="M 811 487v 54h 27a 27 27, 0, 0, 0, 0 -54" transform="rotate(0,838,514)"/><circle cx="838" cy="622" r="27" transform="rotate(0,838,622)"/><path d="M 811 703v 54h 27a 27 27, 0, 0, 0, 0 -54" transform="rotate(-90,838,730)"/><rect x="811" y="757" width="54" height="54" transform="rotate(0,838,784)"/><rect x="811" y="865" width="54" height="54" transform="rotate(0,838,892)"/><path d="M 811 1243v 54h 27a 27 27, 0, 0, 0, 0 -54" transform="rotate(-90,838,1270)"/><rect x="811" y="1297" width="54" height="54" transform="rotate(0,838,1324)"/><path d="M 811 1351v 54h 54a 54 54, 0, 0, 0, -54 -54" transform="rotate(180,838,1378)"/><path d="M 811 1567v 54h 27a 27 27, 0, 0, 0, 0 -54" transform="rotate(-90,838,1594)"/><path d="M 811 1621v 54h 27a 27 27, 0, 0, 0, 0 -54" transform="rotate(90,838,1648)"/><rect x="811" y="1783" width="54" height="54" transform="rotate(0,838,1810)"/><path d="M 811 1837v 54h 27a 27 27, 0, 0, 0, 0 -54" transform="rotate(90,838,1864)"/><rect x="865" y="271" width="54" height="54" transform="rotate(0,892,298)"/><path d="M 865 325v 54h 27a 27 27, 0, 0, 0, 0 -54" transform="rotate(90,892,352)"/><circle cx="892" cy="460" r="27" transform="rotate(0,892,460)"/><path d="M 865 541v 54h 27a 27 27, 0, 0, 0, 0 -54" transform="rotate(180,892,568)"/><circle cx="892" cy="676" r="27" transform="rotate(0,892,676)"/><rect x="865" y="757" width="54" height="54" transform="rotate(0,892,784)"/><path d="M 865 865v 54h 27a 27 27, 0, 0, 0, 0 -54" transform="rotate(0,892,892)"/><circle cx="892" cy="1216" r="27" transform="rotate(0,892,1216)"/><path d="M 865 1297v 54h 54a 54 54, 0, 0, 0, -54 -54" transform="rotate(0,892,1324)"/><rect x="865" y="1351" width="54" height="54" transform="rotate(0,892,1378)"/><path d="M 865 1459v 54h 27a 27 27, 0, 0, 0, 0 -54" transform="rotate(-90,892,1486)"/><path d="M 865 1513v 54h 54a 54 54, 0, 0, 0, -54 -54" transform="rotate(180,892,1540)"/><path d="M 865 1729v 54h 27a 27 27, 0, 0, 0, 0 -54" transform="rotate(-90,892,1756)"/><rect x="865" y="1783" width="54" height="54" transform="rotate(0,892,1810)"/><path d="M 919 163v 54h 54a 54 54, 0, 0, 0, -54 -54" transform="rotate(-90,946,190)"/><rect x="919" y="217" width="54" height="54" transform="rotate(0,946,244)"/><path d="M 919 271v 54h 54a 54 54, 0, 0, 0, -54 -54" transform="rotate(90,946,298)"/><path d="M 919 379v 54h 27a 27 27, 0, 0, 0, 0 -54" transform="rotate(180,946,406)"/><rect x="919" y="541" width="54" height="54" transform="rotate(0,946,568)"/><path d="M 919 595v 54h 27a 27 27, 0, 0, 0, 0 -54" transform="rotate(90,946,622)"/><path d="M 919 703v 54h 54a 54 54, 0, 0, 0, -54 -54" transform="rotate(-90,946,730)"/><rect x="919" y="757" width="54" height="54" transform="rotate(0,946,784)"/><path d="M 919 1027v 54h 27a 27 27, 0, 0, 0, 0 -54" transform="rotate(-90,946,1054)"/><rect x="919" y="1081" width="54" height="54" transform="rotate(0,946,1108)"/><path d="M 919 1135v 54h 54a 54 54, 0, 0, 0, -54 -54" transform="rotate(180,946,1162)"/><path d="M 919 1243v 54h 27a 27 27, 0, 0, 0, 0 -54" transform="rotate(180,946,1270)"/><rect x="919" y="1351" width="54" height="54" transform="rotate(0,946,1378)"/><path d="M 919 1405v 54h 27a 27 27, 0, 0, 0, 0 -54" transform="rotate(90,946,1432)"/><rect x="919" y="1513" width="54" height="54" transform="rotate(0,946,1540)"/><rect x="919" y="1783" width="54" height="54" transform="rotate(0,946,1810)"/><rect x="973" y="163" width="54" height="54" transform="rotate(0,1000,190)"/><path d="M 973 217v 54h 54a 54 54, 0, 0, 0, -54 -54" transform="rotate(90,1000,244)"/><path d="M 973 325v 54h 27a 27 27, 0, 0, 0, 0 -54" transform="rotate(-90,1000,352)"/><rect x="973" y="379" width="54" height="54" transform="rotate(0,1000,406)"/><rect x="973" y="433" width="54" height="54" transform="rotate(0,1000,460)"/><rect x="973" y="487" width="54" height="54" transform="rotate(0,1000,514)"/><rect x="973" y="541" width="54" height="54" transform="rotate(0,1000,568)"/><rect x="973" y="703" width="54" height="54" transform="rotate(0,1000,730)"/><rect x="973" y="757" width="54" height="54" transform="rotate(0,1000,784)"/><rect x="973" y="811" width="54" height="54" transform="rotate(0,1000,838)"/><rect x="973" y="865" width="54" height="54" transform="rotate(0,1000,892)"/><path d="M 973 919v 54h 54a 54 54, 0, 0, 0, -54 -54" transform="rotate(180,1000,946)"/><rect x="973" y="1081" width="54" height="54" transform="rotate(0,1000,1108)"/><path d="M 973 1135v 54h 54a 54 54, 0, 0, 0, -54 -54" transform="rotate(90,1000,1162)"/><rect x="973" y="1243" width="54" height="54" transform="rotate(0,1000,1270)"/><rect x="973" y="1351" width="54" height="54" transform="rotate(0,1000,1378)"/><path d="M 973 1459v 54h 27a 27 27, 0, 0, 0, 0 -54" transform="rotate(-90,1000,1486)"/><path d="M 973 1513v 54h 54a 54 54, 0, 0, 0, -54 -54" transform="rotate(90,1000,1540)"/><path d="M 973 1621v 54h 27a 27 27, 0, 0, 0, 0 -54" transform="rotate(-90,1000,1648)"/><path d="M 973 1675v 54h 54a 54 54, 0, 0, 0, -54 -54" transform="rotate(180,1000,1702)"/><rect x="973" y="1783" width="54" height="54" transform="rotate(0,1000,1810)"/><path d="M 1027 109v 54h 54a 54 54, 0, 0, 0, -54 -54" transform="rotate(-90,1054,136)"/><path d="M 1027 163v 54h 54a 54 54, 0, 0, 0, -54 -54" transform="rotate(90,1054,190)"/><rect x="1027" y="379" width="54" height="54" transform="rotate(0,1054,406)"/><rect x="1027" y="487" width="54" height="54" transform="rotate(0,1054,514)"/><path d="M 1027 541v 54h 54a 54 54, 0, 0, 0, -54 -54" transform="rotate(90,1054,568)"/><path d="M 1027 649v 54h 27a 27 27, 0, 0, 0, 0 -54" transform="rotate(-90,1054,676)"/><rect x="1027" y="703" width="54" height="54" transform="rotate(0,1054,730)"/><rect x="1027" y="757" width="54" height="54" transform="rotate(0,1054,784)"/><path d="M 1027 811v 54h 54a 54 54, 0, 0, 0, -54 -54" transform="rotate(90,1054,838)"/><rect x="1027" y="919" width="54" height="54" transform="rotate(0,1054,946)"/><rect x="1027" y="973" width="54" height="54" transform="rotate(0,1054,1000)"/><rect x="1027" y="1027" width="54" height="54" transform="rotate(0,1054,1054)"/><path d="M 1027 1081v 54h 54a 54 54, 0, 0, 0, -54 -54" transform="rotate(90,1054,1108)"/><path d="M 1027 1243v 54h 27a 27 27, 0, 0, 0, 0 -54" transform="rotate(0,1054,1270)"/><path d="M 1027 1351v 54h 27a 27 27, 0, 0, 0, 0 -54" transform="rotate(0,1054,1378)"/><circle cx="1054" cy="1594" r="27" transform="rotate(0,1054,1594)"/><path d="M 1027 1675v 54h 27a 27 27, 0, 0, 0, 0 -54" transform="rotate(0,1054,1702)"/><path d="M 1027 1783v 54h 27a 27 27, 0, 0, 0, 0 -54" transform="rotate(0,1054,1810)"/><path d="M 1081 109v 54h 27a 27 27, 0, 0, 0, 0 -54" transform="rotate(0,1108,136)"/><path d="M 1081 217v 54h 27a 27 27, 0, 0, 0, 0 -54" transform="rotate(180,1108,244)"/><path d="M 1081 325v 54h 54a 54 54, 0, 0, 0, -54 -54" transform="rotate(-90,1108,352)"/><rect x="1081" y="379" width="54" height="54" transform="rotate(0,1108,406)"/><rect x="1081" y="433" width="54" height="54" transform="rotate(0,1108,460)"/><path d="M 1081 487v 54h 54a 54 54, 0, 0, 0, -54 -54" transform="rotate(90,1108,514)"/><circle cx="1108" cy="622" r="27" transform="rotate(0,1108,622)"/><rect x="1081" y="703" width="54" height="54" transform="rotate(0,1108,730)"/><rect x="1081" y="757" width="54" height="54" transform="rotate(0,1108,784)"/><path d="M 1081 865v 54h 27a 27 27, 0, 0, 0, 0 -54" transform="rotate(-90,1108,892)"/><rect x="1081" y="919" width="54" height="54" transform="rotate(0,1108,946)"/><rect x="1081" y="973" width="54" height="54" transform="rotate(0,1108,1000)"/><path d="M 1081 1027v 54h 54a 54 54, 0, 0, 0, -54 -54" transform="rotate(90,1108,1054)"/><path d="M 1081 1189v 54h 27a 27 27, 0, 0, 0, 0 -54" transform="rotate(180,1108,1216)"/><circle cx="1108" cy="1324" r="27" transform="rotate(0,1108,1324)"/><path d="M 1081 1405v 54h 27a 27 27, 0, 0, 0, 0 -54" transform="rotate(-90,1108,1432)"/><rect x="1081" y="1459" width="54" height="54" transform="rotate(0,1108,1486)"/><path d="M 1081 1513v 54h 54a 54 54, 0, 0, 0, -54 -54" transform="rotate(180,1108,1540)"/><circle cx="1108" cy="1756" r="27" transform="rotate(0,1108,1756)"/><circle cx="1108" cy="1864" r="27" transform="rotate(0,1108,1864)"/><path d="M 1135 163v 54h 54a 54 54, 0, 0, 0, -54 -54" transform="rotate(-90,1162,190)"/><rect x="1135" y="217" width="54" height="54" transform="rotate(0,1162,244)"/><rect x="1135" y="271" width="54" height="54" transform="rotate(0,1162,298)"/><rect x="1135" y="325" width="54" height="54" transform="rotate(0,1162,352)"/><rect x="1135" y="703" width="54" height="54" transform="rotate(0,1162,730)"/><rect x="1135" y="757" width="54" height="54" transform="rotate(0,1162,784)"/><path d="M 1135 811v 54h 54a 54 54, 0, 0, 0, -54 -54" transform="rotate(180,1162,838)"/><rect x="1135" y="919" width="54" height="54" transform="rotate(0,1162,946)"/><path d="M 1135 1135v 54h 27a 27 27, 0, 0, 0, 0 -54" transform="rotate(-90,1162,1162)"/><rect x="1135" y="1189" width="54" height="54" transform="rotate(0,1162,1216)"/><path d="M 1135 1243v 54h 27a 27 27, 0, 0, 0, 0 -54" transform="rotate(90,1162,1270)"/><path d="M 1135 1351v 54h 27a 27 27, 0, 0, 0, 0 -54" transform="rotate(180,1162,1378)"/><rect x="1135" y="1459" width="54" height="54" transform="rotate(0,1162,1486)"/><rect x="1135" y="1513" width="54" height="54" transform="rotate(0,1162,1540)"/><path d="M 1135 1567v 54h 54a 54 54, 0, 0, 0, -54 -54" transform="rotate(180,1162,1594)"/><path d="M 1135 1783v 54h 27a 27 27, 0, 0, 0, 0 -54" transform="rotate(180,1162,1810)"/><rect x="1189" y="163" width="54" height="54" transform="rotate(0,1216,190)"/><rect x="1189" y="217" width="54" height="54" transform="rotate(0,1216,244)"/><rect x="1189" y="271" width="54" height="54" transform="rotate(0,1216,298)"/><rect x="1189" y="325" width="54" height="54" transform="rotate(0,1216,352)"/><rect x="1189" y="379" width="54" height="54" transform="rotate(0,1216,406)"/><rect x="1189" y="433" width="54" height="54" transform="rotate(0,1216,460)"/><path d="M 1189 487v 54h 27a 27 27, 0, 0, 0, 0 -54" transform="rotate(90,1216,514)"/><rect x="1189" y="703" width="54" height="54" transform="rotate(0,1216,730)"/><rect x="1189" y="811" width="54" height="54" transform="rotate(0,1216,838)"/><path d="M 1189 919v 54h 54a 54 54, 0, 0, 0, -54 -54" transform="rotate(0,1216,946)"/><path d="M 1189 973v 54h 54a 54 54, 0, 0, 0, -54 -54" transform="rotate(180,1216,1000)"/><path d="M 1189 1081v 54h 27a 27 27, 0, 0, 0, 0 -54" transform="rotate(180,1216,1108)"/><path d="M 1189 1297v 54h 54a 54 54, 0, 0, 0, -54 -54" transform="rotate(-90,1216,1324)"/><rect x="1189" y="1351" width="54" height="54" transform="rotate(0,1216,1378)"/><rect x="1189" y="1405" width="54" height="54" transform="rotate(0,1216,1432)"/><rect x="1189" y="1459" width="54" height="54" transform="rotate(0,1216,1486)"/><path d="M 1189 1567v 54h 27a 27 27, 0, 0, 0, 0 -54" transform="rotate(0,1216,1594)"/><rect x="1189" y="1783" width="54" height="54" transform="rotate(0,1216,1810)"/><path d="M 1189 1837v 54h 54a 54 54, 0, 0, 0, -54 -54" transform="rotate(180,1216,1864)"/><rect x="1243" y="163" width="54" height="54" transform="rotate(0,1270,190)"/><rect x="1243" y="217" width="54" height="54" transform="rotate(0,1270,244)"/><rect x="1243" y="271" width="54" height="54" transform="rotate(0,1270,298)"/><path d="M 1243 649v 54h 27a 27 27, 0, 0, 0, 0 -54" transform="rotate(-90,1270,676)"/><path d="M 1243 703v 54h 54a 54 54, 0, 0, 0, -54 -54" transform="rotate(90,1270,730)"/><rect x="1243" y="811" width="54" height="54" transform="rotate(0,1270,838)"/><path d="M 1243 865v 54h 27a 27 27, 0, 0, 0, 0 -54" transform="rotate(90,1270,892)"/><rect x="1243" y="973" width="54" height="54" transform="rotate(0,1270,1000)"/><rect x="1243" y="1027" width="54" height="54" transform="rotate(0,1270,1054)"/><rect x="1243" y="1081" width="54" height="54" transform="rotate(0,1270,1108)"/><rect x="1243" y="1135" width="54" height="54" transform="rotate(0,1270,1162)"/><path d="M 1243 1189v 54h 54a 54 54, 0, 0, 0, -54 -54" transform="rotate(180,1270,1216)"/><rect x="1243" y="1297" width="54" height="54" transform="rotate(0,1270,1324)"/><path d="M 1243 1405v 54h 54a 54 54, 0, 0, 0, -54 -54" transform="rotate(0,1270,1432)"/><rect x="1243" y="1459" width="54" height="54" transform="rotate(0,1270,1486)"/><path d="M 1243 1513v 54h 54a 54 54, 0, 0, 0, -54 -54" transform="rotate(180,1270,1540)"/><circle cx="1270" cy="1702" r="27" transform="rotate(0,1270,1702)"/><path d="M 1243 1783v 54h 54a 54 54, 0, 0, 0, -54 -54" transform="rotate(0,1270,1810)"/><rect x="1243" y="1837" width="54" height="54" transform="rotate(0,1270,1864)"/><path d="M 1297 109v 54h 27a 27 27, 0, 0, 0, 0 -54" transform="rotate(-90,1324,136)"/><rect x="1297" y="163" width="54" height="54" transform="rotate(0,1324,190)"/><rect x="1297" y="217" width="54" height="54" transform="rotate(0,1324,244)"/><rect x="1297" y="271" width="54" height="54" transform="rotate(0,1324,298)"/><path d="M 1297 325v 54h 54a 54 54, 0, 0, 0, -54 -54" transform="rotate(180,1324,352)"/><circle cx="1324" cy="460" r="27" transform="rotate(0,1324,460)"/><path d="M 1297 757v 54h 27a 27 27, 0, 0, 0, 0 -54" transform="rotate(-90,1324,784)"/><rect x="1297" y="811" width="54" height="54" transform="rotate(0,1324,838)"/><rect x="1297" y="973" width="54" height="54" transform="rotate(0,1324,1000)"/><path d="M 1297 1189v 54h 54a 54 54, 0, 0, 0, -54 -54" transform="rotate(0,1324,1216)"/><rect x="1297" y="1243" width="54" height="54" transform="rotate(0,1324,1270)"/><path d="M 1297 1297v 54h 54a 54 54, 0, 0, 0, -54 -54" transform="rotate(90,1324,1324)"/><rect x="1297" y="1513" width="54" height="54" transform="rotate(0,1324,1540)"/><rect x="1297" y="1567" width="54" height="54" transform="rotate(0,1324,1594)"/><path d="M 1297 1621v 54h 27a 27 27, 0, 0, 0, 0 -54" transform="rotate(90,1324,1648)"/><path d="M 1297 1837v 54h 27a 27 27, 0, 0, 0, 0 -54" transform="rotate(0,1324,1864)"/><path d="M 1351 163v 54h 27a 27 27, 0, 0, 0, 0 -54" transform="rotate(0,1378,190)"/><path d="M 1351 271v 54h 54a 54 54, 0, 0, 0, -54 -54" transform="rotate(0,1378,298)"/><rect x="1351" y="325" width="54" height="54" transform="rotate(0,1378,352)"/><path d="M 1351 487v 54h 54a 54 54, 0, 0, 0, -54 -54" transform="rotate(-90,1378,514)"/><rect x="1351" y="541" width="54" height="54" transform="rotate(0,1378,568)"/><rect x="1351" y="595" width="54" height="54" transform="rotate(0,1378,622)"/><rect x="1351" y="649" width="54" height="54" transform="rotate(0,1378,676)"/><path d="M 1351 703v 54h 54a 54 54, 0, 0, 0, -54 -54" transform="rotate(180,1378,730)"/><path d="M 1351 811v 54h 27a 27 27, 0, 0, 0, 0 -54" transform="rotate(0,1378,838)"/><path d="M 1351 919v 54h 27a 27 27, 0, 0, 0, 0 -54" transform="rotate(-90,1378,946)"/><rect x="1351" y="973" width="54" height="54" transform="rotate(0,1378,1000)"/><rect x="1351" y="1243" width="54" height="54" transform="rotate(0,1378,1270)"/><circle cx="1378" cy="1378" r="27" transform="rotate(0,1378,1378)"/><rect x="1351" y="1513" width="54" height="54" transform="rotate(0,1378,1540)"/><rect x="1351" y="1567" width="54" height="54" transform="rotate(0,1378,1594)"/><path d="M 1351 1675v 54h 27a 27 27, 0, 0, 0, 0 -54" transform="rotate(180,1378,1702)"/><circle cx="1432" cy="136" r="27" transform="rotate(0,1432,136)"/><circle cx="1432" cy="244" r="27" transform="rotate(0,1432,244)"/><path d="M 1405 325v 54h 54a 54 54, 0, 0, 0, -54 -54" transform="rotate(0,1432,352)"/><rect x="1405" y="379" width="54" height="54" transform="rotate(0,1432,406)"/><rect x="1405" y="433" width="54" height="54" transform="rotate(0,1432,460)"/><path d="M 1405 487v 54h 54a 54 54, 0, 0, 0, -54 -54" transform="rotate(90,1432,514)"/><rect x="1405" y="649" width="54" height="54" transform="rotate(0,1432,676)"/><rect x="1405" y="703" width="54" height="54" transform="rotate(0,1432,730)"/><path d="M 1405 757v 54h 27a 27 27, 0, 0, 0, 0 -54" transform="rotate(90,1432,784)"/><rect x="1405" y="973" width="54" height="54" transform="rotate(0,1432,1000)"/><path d="M 1405 1135v 54h 54a 54 54, 0, 0, 0, -54 -54" transform="rotate(-90,1432,1162)"/><rect x="1405" y="1189" width="54" height="54" transform="rotate(0,1432,1216)"/><path d="M 1405 1243v 54h 54a 54 54, 0, 0, 0, -54 -54" transform="rotate(90,1432,1270)"/><path d="M 1405 1405v 54h 54a 54 54, 0, 0, 0, -54 -54" transform="rotate(-90,1432,1432)"/><rect x="1405" y="1459" width="54" height="54" transform="rotate(0,1432,1486)"/><rect x="1405" y="1513" width="54" height="54" transform="rotate(0,1432,1540)"/><rect x="1405" y="1567" width="54" height="54" transform="rotate(0,1432,1594)"/><rect x="1405" y="1621" width="54" height="54" transform="rotate(0,1432,1648)"/><rect x="1405" y="1675" width="54" height="54" transform="rotate(0,1432,1702)"/><path d="M 1405 1729v 54h 27a 27 27, 0, 0, 0, 0 -54" transform="rotate(90,1432,1756)"/><path d="M 1405 1837v 54h 27a 27 27, 0, 0, 0, 0 -54" transform="rotate(180,1432,1864)"/><path d="M 1459 541v 54h 27a 27 27, 0, 0, 0, 0 -54" transform="rotate(180,1486,568)"/><path d="M 1459 649v 54h 54a 54 54, 0, 0, 0, -54 -54" transform="rotate(0,1486,676)"/><path d="M 1459 703v 54h 54a 54 54, 0, 0, 0, -54 -54" transform="rotate(90,1486,730)"/><rect x="1459" y="973" width="54" height="54" transform="rotate(0,1486,1000)"/><rect x="1459" y="1027" width="54" height="54" transform="rotate(0,1486,1054)"/><rect x="1459" y="1081" width="54" height="54" transform="rotate(0,1486,1108)"/><rect x="1459" y="1135" width="54" height="54" transform="rotate(0,1486,1162)"/><path d="M 1459 1189v 54h 54a 54 54, 0, 0, 0, -54 -54" transform="rotate(90,1486,1216)"/><rect x="1459" y="1405" width="54" height="54" transform="rotate(0,1486,1432)"/><rect x="1459" y="1621" width="54" height="54" transform="rotate(0,1486,1648)"/><rect x="1459" y="1675" width="54" height="54" transform="rotate(0,1486,1702)"/><path d="M 1459 1837v 54h 27a 27 27, 0, 0, 0, 0 -54" transform="rotate(0,1486,1864)"/><rect x="1513" y="541" width="54" height="54" transform="rotate(0,1540,568)"/><path d="M 1513 757v 54h 27a 27 27, 0, 0, 0, 0 -54" transform="rotate(180,1540,784)"/><path d="M 1513 973v 54h 54a 54 54, 0, 0, 0, -54 -54" transform="rotate(0,1540,1000)"/><path d="M 1513 1027v 54h 54a 54 54, 0, 0, 0, -54 -54" transform="rotate(90,1540,1054)"/><circle cx="1540" cy="1270" r="27" transform="rotate(0,1540,1270)"/><rect x="1513" y="1405" width="54" height="54" transform="rotate(0,1540,1432)"/><circle cx="1540" cy="1540" r="27" transform="rotate(0,1540,1540)"/><rect x="1513" y="1621" width="54" height="54" transform="rotate(0,1540,1648)"/><rect x="1513" y="1675" width="54" height="54" transform="rotate(0,1540,1702)"/><rect x="1513" y="1729" width="54" height="54" transform="rotate(0,1540,1756)"/><path d="M 1513 1783v 54h 27a 27 27, 0, 0, 0, 0 -54" transform="rotate(90,1540,1810)"/><path d="M 1567 541v 54h 54a 54 54, 0, 0, 0, -54 -54" transform="rotate(0,1594,568)"/><path d="M 1567 595v 54h 54a 54 54, 0, 0, 0, -54 -54" transform="rotate(180,1594,622)"/><rect x="1567" y="757" width="54" height="54" transform="rotate(0,1594,784)"/><path d="M 1567 865v 54h 27a 27 27, 0, 0, 0, 0 -54" transform="rotate(-90,1594,892)"/><path d="M 1567 919v 54h 27a 27 27, 0, 0, 0, 0 -54" transform="rotate(90,1594,946)"/><path d="M 1567 1351v 54h 27a 27 27, 0, 0, 0, 0 -54" transform="rotate(-90,1594,1378)"/><rect x="1567" y="1405" width="54" height="54" transform="rotate(0,1594,1432)"/><rect x="1567" y="1621" width="54" height="54" transform="rotate(0,1594,1648)"/><circle cx="1594" cy="1864" r="27" transform="rotate(0,1594,1864)"/><rect x="1621" y="595" width="54" height="54" transform="rotate(0,1648,622)"/><rect x="1621" y="649" width="54" height="54" transform="rotate(0,1648,676)"/><rect x="1621" y="703" width="54" height="54" transform="rotate(0,1648,730)"/><rect x="1621" y="757" width="54" height="54" transform="rotate(0,1648,784)"/><path d="M 1621 811v 54h 54a 54 54, 0, 0, 0, -54 -54" transform="rotate(180,1648,838)"/><path d="M 1621 973v 54h 27a 27 27, 0, 0, 0, 0 -54" transform="rotate(180,1648,1000)"/><path d="M 1621 1081v 54h 27a 27 27, 0, 0, 0, 0 -54" transform="rotate(-90,1648,1108)"/><path d="M 1621 1135v 54h 54a 54 54, 0, 0, 0, -54 -54" transform="rotate(180,1648,1162)"/><circle cx="1648" cy="1324" r="27" transform="rotate(0,1648,1324)"/><rect x="1621" y="1405" width="54" height="54" transform="rotate(0,1648,1432)"/><rect x="1621" y="1459" width="54" height="54" transform="rotate(0,1648,1486)"/><rect x="1621" y="1513" width="54" height="54" transform="rotate(0,1648,1540)"/><rect x="1621" y="1567" width="54" height="54" transform="rotate(0,1648,1594)"/><rect x="1621" y="1621" width="54" height="54" transform="rotate(0,1648,1648)"/><path d="M 1621 1675v 54h 54a 54 54, 0, 0, 0, -54 -54" transform="rotate(180,1648,1702)"/><path d="M 1675 541v 54h 27a 27 27, 0, 0, 0, 0 -54" transform="rotate(-90,1702,568)"/><rect x="1675" y="595" width="54" height="54" transform="rotate(0,1702,622)"/><rect x="1675" y="649" width="54" height="54" transform="rotate(0,1702,676)"/><rect x="1675" y="703" width="54" height="54" transform="rotate(0,1702,730)"/><path d="M 1675 811v 54h 54a 54 54, 0, 0, 0, -54 -54" transform="rotate(0,1702,838)"/><path d="M 1675 865v 54h 54a 54 54, 0, 0, 0, -54 -54" transform="rotate(180,1702,892)"/><path d="M 1675 973v 54h 54a 54 54, 0, 0, 0, -54 -54" transform="rotate(0,1702,1000)"/><path d="M 1675 1027v 54h 54a 54 54, 0, 0, 0, -54 -54" transform="rotate(180,1702,1054)"/><path d="M 1675 1135v 54h 54a 54 54, 0, 0, 0, -54 -54" transform="rotate(0,1702,1162)"/><rect x="1675" y="1189" width="54" height="54" transform="rotate(0,1702,1216)"/><path d="M 1675 1243v 54h 27a 27 27, 0, 0, 0, 0 -54" transform="rotate(90,1702,1270)"/><rect x="1675" y="1405" width="54" height="54" transform="rotate(0,1702,1432)"/><rect x="1675" y="1459" width="54" height="54" transform="rotate(0,1702,1486)"/><path d="M 1675 1513v 54h 54a 54 54, 0, 0, 0, -54 -54" transform="rotate(90,1702,1540)"/><rect x="1675" y="1621" width="54" height="54" transform="rotate(0,1702,1648)"/><rect x="1675" y="1675" width="54" height="54" transform="rotate(0,1702,1702)"/><circle cx="1702" cy="1810" r="27" transform="rotate(0,1702,1810)"/><rect x="1729" y="595" width="54" height="54" transform="rotate(0,1756,622)"/><rect x="1729" y="649" width="54" height="54" transform="rotate(0,1756,676)"/><rect x="1729" y="703" width="54" height="54" transform="rotate(0,1756,730)"/><path d="M 1729 757v 54h 27a 27 27, 0, 0, 0, 0 -54" transform="rotate(90,1756,784)"/><path d="M 1729 865v 54h 54a 54 54, 0, 0, 0, -54 -54" transform="rotate(0,1756,892)"/><path d="M 1729 919v 54h 27a 27 27, 0, 0, 0, 0 -54" transform="rotate(90,1756,946)"/><path d="M 1729 1027v 54h 54a 54 54, 0, 0, 0, -54 -54" transform="rotate(0,1756,1054)"/><path d="M 1729 1081v 54h 54a 54 54, 0, 0, 0, -54 -54" transform="rotate(180,1756,1108)"/><path d="M 1729 1297v 54h 27a 27 27, 0, 0, 0, 0 -54" transform="rotate(-90,1756,1324)"/><rect x="1729" y="1351" width="54" height="54" transform="rotate(0,1756,1378)"/><rect x="1729" y="1405" width="54" height="54" transform="rotate(0,1756,1432)"/><rect x="1729" y="1459" width="54" height="54" transform="rotate(0,1756,1486)"/><path d="M 1729 1621v 54h 54a 54 54, 0, 0, 0, -54 -54" transform="rotate(0,1756,1648)"/><path d="M 1729 1675v 54h 54a 54 54, 0, 0, 0, -54 -54" transform="rotate(90,1756,1702)"/><circle cx="1756" cy="1864" r="27" transform="rotate(0,1756,1864)"/><path d="M 1783 541v 54h 27a 27 27, 0, 0, 0, 0 -54" transform="rotate(-90,1810,568)"/><path d="M 1783 595v 54h 54a 54 54, 0, 0, 0, -54 -54" transform="rotate(90,1810,622)"/><path d="M 1783 811v 54h 27a 27 27, 0, 0, 0, 0 -54" transform="rotate(180,1810,838)"/><path d="M 1783 973v 54h 27a 27 27, 0, 0, 0, 0 -54" transform="rotate(180,1810,1000)"/><rect x="1783" y="1081" width="54" height="54" transform="rotate(0,1810,1108)"/><path d="M 1783 1243v 54h 27a 27 27, 0, 0, 0, 0 -54" transform="rotate(180,1810,1270)"/><rect x="1783" y="1405" width="54" height="54" transform="rotate(0,1810,1432)"/><path d="M 1783 1459v 54h 54a 54 54, 0, 0, 0, -54 -54" transform="rotate(90,1810,1486)"/><circle cx="1864" cy="676" r="27" transform="rotate(0,1864,676)"/><path d="M 1837 757v 54h 27a 27 27, 0, 0, 0, 0 -54" transform="rotate(-90,1864,784)"/><path d="M 1837 811v 54h 54a 54 54, 0, 0, 0, -54 -54" transform="rotate(90,1864,838)"/><path d="M 1837 919v 54h 27a 27 27, 0, 0, 0, 0 -54" transform="rotate(-90,1864,946)"/><rect x="1837" y="973" width="54" height="54" transform="rotate(0,1864,1000)"/><rect x="1837" y="1027" width="54" height="54" transform="rotate(0,1864,1054)"/><path d="M 1837 1081v 54h 54a 54 54, 0, 0, 0, -54 -54" transform="rotate(90,1864,1108)"/><path d="M 1837 1189v 54h 27a 27 27, 0, 0, 0, 0 -54" transform="rotate(-90,1864,1216)"/><path d="M 1837 1243v 54h 54a 54 54, 0, 0, 0, -54 -54" transform="rotate(90,1864,1270)"/><path d="M 1837 1351v 54h 27a 27 27, 0, 0, 0, 0 -54" transform="rotate(-90,1864,1378)"/><path d="M 1837 1405v 54h 54a 54 54, 0, 0, 0, -54 -54" transform="rotate(90,1864,1432)"/><circle cx="1864" cy="1648" r="27" transform="rotate(0,1864,1648)"/><path d="M 1837 1729v 54h 27a 27 27, 0, 0, 0, 0 -54" transform="rotate(-90,1864,1756)"/><path d="M 1837 1783v 54h 27a 27 27, 0, 0, 0, 0 -54" transform="rotate(90,1864,1810)"/></clipPath><clipPath id="clip-path-corners-square-color-0-0"><path clip-rule="evenodd" d="M 109 244v 108a 135 135, 0, 0, 0, 135 135h 108a 135 135, 0, 0, 0, 135 -135v -108a 135 135, 0, 0, 0, -135 -135h -108a 135 135, 0, 0, 0, -135 135M 244 163h 108a 81 81, 0, 0, 1, 81 81v 108a 81 81, 0, 0, 1, -81 81h -108a 81 81, 0, 0, 1, -81 -81v -108a 81 81, 0, 0, 1, 81 -81" transform="rotate(0,298,298)"/></clipPath><clipPath id="clip-path-corners-dot-color-0-0"><path d="M 217 217v 54h 54a 54 54, 0, 0, 0, -54 -54" transform="rotate(-90,244,244)"/><rect x="217" y="271" width="54" height="54" transform="rotate(0,244,298)"/><path d="M 217 325v 54h 54a 54 54, 0, 0, 0, -54 -54" transform="rotate(180,244,352)"/><rect x="271" y="217" width="54" height="54" transform="rotate(0,298,244)"/><rect x="271" y="271" width="54" height="54" transform="rotate(0,298,298)"/><rect x="271" y="325" width="54" height="54" transform="rotate(0,298,352)"/><path d="M 325 217v 54h 54a 54 54, 0, 0, 0, -54 -54" transform="rotate(0,352,244)"/><rect x="325" y="271" width="54" height="54" transform="rotate(0,352,298)"/><path d="M 325 325v 54h 54a 54 54, 0, 0, 0, -54 -54" transform="rotate(90,352,352)"/></clipPath><clipPath id="clip-path-corners-square-color-1-0"><path clip-rule="evenodd" d="M 1513 244v 108a 135 135, 0, 0, 0, 135 135h 108a 135 135, 0, 0, 0, 135 -135v -108a 135 135, 0, 0, 0, -135 -135h -108a 135 135, 0, 0, 0, -135 135M 1648 163h 108a 81 81, 0, 0, 1, 81 81v 108a 81 81, 0, 0, 1, -81 81h -108a 81 81, 0, 0, 1, -81 -81v -108a 81 81, 0, 0, 1, 81 -81" transform="rotate(90,1702,298)"/></clipPath><clipPath id="clip-path-corners-dot-color-1-0"><path d="M 1621 217v 54h 54a 54 54, 0, 0, 0, -54 -54" transform="rotate(-90,1648,244)"/><rect x="1621" y="271" width="54" height="54" transform="rotate(0,1648,298)"/><path d="M 1621 325v 54h 54a 54 54, 0, 0, 0, -54 -54" transform="rotate(180,1648,352)"/><rect x="1675" y="217" width="54" height="54" transform="rotate(0,1702,244)"/><rect x="1675" y="271" width="54" height="54" transform="rotate(0,1702,298)"/><rect x="1675" y="325" width="54" height="54" transform="rotate(0,1702,352)"/><path d="M 1729 217v 54h 54a 54 54, 0, 0, 0, -54 -54" transform="rotate(0,1756,244)"/><rect x="1729" y="271" width="54" height="54" transform="rotate(0,1756,298)"/><path d="M 1729 325v 54h 54a 54 54, 0, 0, 0, -54 -54" transform="rotate(90,1756,352)"/></clipPath><clipPath id="clip-path-corners-square-color-0-1"><path clip-rule="evenodd" d="M 109 1648v 108a 135 135, 0, 0, 0, 135 135h 108a 135 135, 0, 0, 0, 135 -135v -108a 135 135, 0, 0, 0, -135 -135h -108a 135 135, 0, 0, 0, -135 135M 244 1567h 108a 81 81, 0, 0, 1, 81 81v 108a 81 81, 0, 0, 1, -81 81h -108a 81 81, 0, 0, 1, -81 -81v -108a 81 81, 0, 0, 1, 81 -81" transform="rotate(-90,298,1702)"/></clipPath><clipPath id="clip-path-corners-dot-color-0-1"><path d="M 217 1621v 54h 54a 54 54, 0, 0, 0, -54 -54" transform="rotate(-90,244,1648)"/><rect x="217" y="1675" width="54" height="54" transform="rotate(0,244,1702)"/><path d="M 217 1729v 54h 54a 54 54, 0, 0, 0, -54 -54" transform="rotate(180,244,1756)"/><rect x="271" y="1621" width="54" height="54" transform="rotate(0,298,1648)"/><rect x="271" y="1675" width="54" height="54" transform="rotate(0,298,1702)"/><rect x="271" y="1729" width="54" height="54" transform="rotate(0,298,1756)"/><path d="M 325 1621v 54h 54a 54 54, 0, 0, 0, -54 -54" transform="rotate(0,352,1648)"/><rect x="325" y="1675" width="54" height="54" transform="rotate(0,352,1702)"/><path d="M 325 1729v 54h 54a 54 54, 0, 0, 0, -54 -54" transform="rotate(90,352,1756)"/></clipPath></defs><rect x="0" y="0" height="2000" width="2000" clip-path="url('#clip-path-background-color')" fill="#ffffff"/><rect x="109" y="109" height="1782" width="1782" clip-path="url('#clip-path-dot-color')" fill="#28e98c"/><rect x="109" y="109" height="378" width="378" clip-path="url('#clip-path-corners-square-color-0-0')" fill="#28e98c"/><rect x="217" y="217" height="162" width="162" clip-path="url('#clip-path-corners-dot-color-0-0')" fill="#28e98c"/><rect x="1513" y="109" height="378" width="378" clip-path="url('#clip-path-corners-square-color-1-0')" fill="#28e98c"/><rect x="1621" y="217" height="162" width="162" clip-path="url('#clip-path-corners-dot-color-1-0')" fill="#28e98c"/><rect x="109" y="1513" height="378" width="378" clip-path="url('#clip-path-corners-square-color-0-1')" fill="#28e98c"/><rect x="217" y="1621" height="162" width="162" clip-path="url('#clip-path-corners-dot-color-0-1')" fill="#28e98c"/></svg>